# xmcd
#
# Track frame offsets:
#	150
#	13352
#	26968
#	39515
#	53127
#	65375
#	77417
#	93069
#	106907
#	118815
#	132196
#	143886
#	153552
#	167229
#	179853
#	197549
#
# Disc length: 2898 seconds
#
# Revision: 2
# Processed by: cddbd v1.5.2PL0 Copyright (c) Steve Scherf et al.
# Submitted via: audiograbber 1.83.01
#
DISCID=dd0b5010
DTITLE=Forever Hits - FH-3106 Queens Of Country
DYEAR=1900
DGENRE=Karaoke
TTITLE0=Patsy Cline - Crazy
TTITLE1=Patsy Cline - I Fall To Pieces
TTITLE2=Patsy Cline - Walkin' After Midnight
TTITLE3=Dolly Parton - 9 To 5
TTITLE4=Dolly Parton - Jolene
TTITLE5=Sammi Smith - Help Me Make It Through The Night
TTITLE6=Sylvia - Nobody
TTITLE7=Lynn Anderson - Rose Garden
TTITLE8=Kitty Wells - It Wasn't God Who Made Honky Tonk Angels (Wild Side Of Li
TTITLE8=fe)
TTITLE9=Tanya Tucker - Delta Dawn
TTITLE10=Crystal Gayle - Don't It Make My Brown Eyes Blue
TTITLE11=Tammy Wynette - Your Good Girl's Gonna Go Bad
TTITLE12=Tammy Wynette - Divorce
TTITLE13=Tammy Wynette - Stand By Your Man
TTITLE14=Judds, The - Love Is Alive
TTITLE15=Judds , Judds, The - Grandpa (Tell Me 'Bout The Good Old Days)
EXTD=
EXTT0=
EXTT1=
EXTT2=
EXTT3=
EXTT4=
EXTT5=
EXTT6=
EXTT7=
EXTT8=
EXTT9=
EXTT10=
EXTT11=
EXTT12=
EXTT13=
EXTT14=
EXTT15=
PLAYORDER=
